<?xml version="1.0" standalone="no"?>
<!DOCTYPE svg PUBLIC "-//W3C//DTD SVG 20010904//EN"
 "http://www.w3.org/TR/2001/REC-SVG-20010904/DTD/svg10.dtd">
<svg version="1.0" xmlns="http://www.w3.org/2000/svg"
 width="146.000000pt" height="146.000000pt" viewBox="0 0 146.000000 146.000000"
 preserveAspectRatio="xMidYMid meet">
<metadata>
Created by potrace 1.11, written by Peter Selinger 2001-2013
</metadata>
<g transform="translate(0.000000,146.000000) scale(0.100000,-0.100000)"
fill="#000000" stroke="none">
<path d="M882 1428 c-16 -16 -15 -33 3 -48 30 -25 15 -70 -20 -59 -5 1 -43 3
-84 4 -72 2 -75 3 -78 28 -3 19 3 29 19 38 20 11 20 13 5 24 -17 12 -75 7
-119 -10 -19 -8 -25 -34 -8 -36 6 -1 15 -2 21 -3 18 -2 31 -46 16 -51 -6 -2
-32 -11 -57 -20 -25 -9 -52 -19 -61 -21 -19 -7 -43 48 -28 63 12 12 -17 53
-37 53 -24 0 -71 -28 -78 -46 -10 -26 3 -54 26 -54 18 0 58 -33 58 -48 0 -7
-30 -30 -63 -48 -22 -12 -32 -13 -43 -4 -7 7 -24 9 -36 6 -49 -13 -80 -98 -44
-118 14 -8 12 -15 -14 -65 -17 -31 -30 -62 -30 -69 0 -8 -6 -14 -14 -14 -28 0
-46 12 -46 30 0 50 -54 27 -71 -29 -15 -50 -5 -91 22 -91 11 0 22 7 25 15 7
18 54 20 55 3 3 -28 -3 -63 -11 -72 -5 -5 -4 -18 2 -29 8 -16 8 -19 -5 -14
-25 10 -50 -17 -49 -52 1 -44 25 -78 54 -77 19 1 23 -4 24 -31 0 -18 8 -41 18
-52 25 -27 12 -43 -29 -35 -27 5 -35 2 -44 -15 -15 -27 -5 -64 24 -91 20 -19
26 -20 47 -8 13 7 24 22 23 32 0 11 6 21 12 23 17 6 63 -45 63 -68 0 -11 5
-19 10 -19 6 0 22 -7 36 -16 20 -13 22 -19 12 -31 -7 -9 -21 -12 -35 -9 -18 5
-24 1 -29 -18 -8 -33 9 -60 51 -80 40 -19 81 -7 72 22 -13 45 -12 47 13 44 13
-1 34 -12 47 -24 12 -11 35 -22 50 -24 16 -1 31 -2 36 -3 17 -2 5 -26 -25 -51
-29 -25 -31 -30 -21 -53 16 -34 81 -55 118 -39 29 13 34 54 10 78 -24 24 -8
45 29 37 39 -8 62 -8 108 -1 23 4 47 0 65 -9 58 -31 127 -10 135 40 4 28 36
47 48 27 5 -9 5 -19 -1 -27 -6 -6 -8 -21 -4 -32 19 -62 154 -12 138 50 -4 12
-17 22 -34 26 -53 10 -55 28 -8 70 48 44 53 43 58 -4 2 -19 46 -16 64 5 29 32
38 70 21 87 -12 11 -20 12 -35 5 -26 -15 -24 -2 11 53 17 26 30 53 30 60 1 7
6 22 13 34 11 20 15 21 37 10 14 -7 25 -19 25 -26 0 -8 10 -17 22 -22 29 -11
51 16 59 73 6 41 4 47 -16 58 -17 9 -25 9 -39 -4 -10 -9 -27 -16 -39 -16 -21
0 -22 4 -20 73 3 68 4 73 24 69 53 -10 74 79 29 124 -21 21 -28 23 -46 14 -22
-12 -29 -10 -33 12 -1 7 -9 29 -18 48 -15 34 -14 35 13 53 22 14 32 16 48 7
17 -8 24 -7 41 10 20 20 19 36 -8 77 -20 31 -49 38 -72 18 -11 -10 -17 -22
-14 -27 6 -9 -32 -48 -46 -48 -3 0 -33 30 -66 67 -32 37 -51 64 -41 60 25 -9
52 34 38 62 -28 51 -105 70 -120 29 -5 -13 -6 -28 -4 -35 4 -9 -49 13 -106 44
-2 1 -1 13 3 26 3 15 16 27 31 31 18 5 25 13 25 30 0 41 -107 75 -138 44z"/>
</g>
</svg>
